<svg id="visual" viewBox="0 0 900 600" width="900" height="600" xmlns="http://www.w3.org/2000/svg" xmlns:xlink="http://www.w3.org/1999/xlink" version="1.1"><rect x="0" y="0" width="900" height="600" fill="#22b14c"></rect><path d="M0 328L21.5 326.7C43 325.3 86 322.7 128.8 330.3C171.7 338 214.3 356 257.2 347.8C300 339.7 343 305.3 385.8 312.5C428.7 319.7 471.3 368.3 514.2 378.2C557 388 600 359 642.8 354.7C685.7 350.3 728.3 370.7 771.2 381.3C814 392 857 393 878.5 393.5L900 394L900 0L878.5 0C857 0 814 0 771.2 0C728.3 0 685.7 0 642.8 0C600 0 557 0 514.2 0C471.3 0 428.7 0 385.8 0C343 0 300 0 257.2 0C214.3 0 171.7 0 128.8 0C86 0 43 0 21.5 0L0 0Z" fill="#217234"></path><path d="M0 366L21.5 363.7C43 361.3 86 356.7 128.8 339.7C171.7 322.7 214.3 293.3 257.2 278.8C300 264.3 343 264.7 385.8 276C428.7 287.3 471.3 309.7 514.2 317.7C557 325.7 600 319.3 642.8 314.5C685.7 309.7 728.3 306.3 771.2 310.2C814 314 857 325 878.5 330.5L900 336L900 0L878.5 0C857 0 814 0 771.2 0C728.3 0 685.7 0 642.8 0C600 0 557 0 514.2 0C471.3 0 428.7 0 385.8 0C343 0 300 0 257.2 0C214.3 0 171.7 0 128.8 0C86 0 43 0 21.5 0L0 0Z" fill="#165926"></path><path d="M0 188L21.5 194C43 200 86 212 128.8 207.8C171.7 203.7 214.3 183.3 257.2 178C300 172.7 343 182.3 385.8 188.8C428.7 195.3 471.3 198.7 514.2 198.8C557 199 600 196 642.8 200.5C685.7 205 728.3 217 771.2 220.2C814 223.3 857 217.7 878.5 214.8L900 212L900 0L878.5 0C857 0 814 0 771.2 0C728.3 0 685.7 0 642.8 0C600 0 557 0 514.2 0C471.3 0 428.7 0 385.8 0C343 0 300 0 257.2 0C214.3 0 171.7 0 128.8 0C86 0 43 0 21.5 0L0 0Z" fill="#0b4118"></path><path d="M0 147L21.5 141.2C43 135.3 86 123.7 128.8 123.3C171.7 123 214.3 134 257.2 145.3C300 156.7 343 168.3 385.8 171C428.7 173.7 471.3 167.3 514.2 163.2C557 159 600 157 642.8 160.2C685.7 163.3 728.3 171.7 771.2 179.8C814 188 857 196 878.5 200L900 204L900 0L878.5 0C857 0 814 0 771.2 0C728.3 0 685.7 0 642.8 0C600 0 557 0 514.2 0C471.3 0 428.7 0 385.8 0C343 0 300 0 257.2 0C214.3 0 171.7 0 128.8 0C86 0 43 0 21.5 0L0 0Z" fill="#0b3817"></path><path d="M0 128L21.5 116.2C43 104.3 86 80.7 128.8 71.5C171.7 62.3 214.3 67.7 257.2 71.7C300 75.7 343 78.3 385.8 78.8C428.7 79.3 471.3 77.7 514.2 77.2C557 76.7 600 77.3 642.8 84.2C685.7 91 728.3 104 771.2 99C814 94 857 71 878.5 59.5L900 48L900 0L878.5 0C857 0 814 0 771.2 0C728.3 0 685.7 0 642.8 0C600 0 557 0 514.2 0C471.3 0 428.7 0 385.8 0C343 0 300 0 257.2 0C214.3 0 171.7 0 128.8 0C86 0 43 0 21.5 0L0 0Z" fill="#0b3015"></path></svg>