<svg id="visual" viewBox="0 0 900 600" width="900" height="600" xmlns="http://www.w3.org/2000/svg" xmlns:xlink="http://www.w3.org/1999/xlink" version="1.1"><rect x="0" y="0" width="900" height="600" fill="#454545"></rect><path d="M0 153L21.5 166.2C43 179.3 86 205.7 128.8 213C171.7 220.3 214.3 208.7 257.2 211C300 213.3 343 229.7 385.8 235C428.7 240.3 471.3 234.7 514.2 228.8C557 223 600 217 642.8 215.2C685.7 213.3 728.3 215.7 771.2 214.7C814 213.7 857 209.3 878.5 207.2L900 205L900 0L878.5 0C857 0 814 0 771.2 0C728.3 0 685.7 0 642.8 0C600 0 557 0 514.2 0C471.3 0 428.7 0 385.8 0C343 0 300 0 257.2 0C214.3 0 171.7 0 128.8 0C86 0 43 0 21.5 0L0 0Z" fill="#8bc6f9"></path><path d="M0 149L21.5 156C43 163 86 177 128.8 172.2C171.7 167.3 214.3 143.7 257.2 142.5C300 141.3 343 162.7 385.8 167.2C428.7 171.7 471.3 159.3 514.2 159.5C557 159.7 600 172.3 642.8 176C685.7 179.7 728.3 174.3 771.2 165.8C814 157.3 857 145.7 878.5 139.8L900 134L900 0L878.5 0C857 0 814 0 771.2 0C728.3 0 685.7 0 642.8 0C600 0 557 0 514.2 0C471.3 0 428.7 0 385.8 0C343 0 300 0 257.2 0C214.3 0 171.7 0 128.8 0C86 0 43 0 21.5 0L0 0Z" fill="#6fb9f8"></path><path d="M0 114L21.5 120.8C43 127.7 86 141.3 128.8 140.3C171.7 139.3 214.3 123.7 257.2 118.5C300 113.3 343 118.7 385.8 123.7C428.7 128.7 471.3 133.3 514.2 129.8C557 126.3 600 114.7 642.8 109.5C685.7 104.3 728.3 105.7 771.2 112.2C814 118.7 857 130.3 878.5 136.2L900 142L900 0L878.5 0C857 0 814 0 771.2 0C728.3 0 685.7 0 642.8 0C600 0 557 0 514.2 0C471.3 0 428.7 0 385.8 0C343 0 300 0 257.2 0C214.3 0 171.7 0 128.8 0C86 0 43 0 21.5 0L0 0Z" fill="#4facf7"></path><path d="M0 73L21.5 73.8C43 74.7 86 76.3 128.8 77.7C171.7 79 214.3 80 257.2 83.7C300 87.3 343 93.7 385.8 99.7C428.7 105.7 471.3 111.3 514.2 109.5C557 107.7 600 98.3 642.8 93.5C685.7 88.7 728.3 88.3 771.2 92.3C814 96.3 857 104.7 878.5 108.8L900 113L900 0L878.5 0C857 0 814 0 771.2 0C728.3 0 685.7 0 642.8 0C600 0 557 0 514.2 0C471.3 0 428.7 0 385.8 0C343 0 300 0 257.2 0C214.3 0 171.7 0 128.8 0C86 0 43 0 21.5 0L0 0Z" fill="#4395d9"></path><path d="M0 35L21.5 35C43 35 86 35 128.8 37.7C171.7 40.3 214.3 45.7 257.2 47.7C300 49.7 343 48.3 385.8 46.8C428.7 45.3 471.3 43.7 514.2 44.2C557 44.7 600 47.3 642.8 49.5C685.7 51.7 728.3 53.3 771.2 57C814 60.7 857 66.3 878.5 69.2L900 72L900 0L878.5 0C857 0 814 0 771.2 0C728.3 0 685.7 0 642.8 0C600 0 557 0 514.2 0C471.3 0 428.7 0 385.8 0C343 0 300 0 257.2 0C214.3 0 171.7 0 128.8 0C86 0 43 0 21.5 0L0 0Z" fill="#377ebb"></path></svg>